# xmcd
#
# Track frame offsets:
#	150
#	13655
#	27415
#	43017
#	71045
#	83345
#	93182
#	110467
#	124995
#	145182
#	156275
#	176232
#	190737
#	215762
#
# Disc length: 3107 seconds
#
# Revision: 0
# Processed by: cddbd v1.5.2PL0 Copyright (c) Steve Scherf et al.
# Submitted via: EZCDAudioConverter 2.1.7.1
#
DISCID=c20c210e
DTITLE=V/A - True Blood V2
DYEAR=2010
DGENRE=
TTITLE0=M. Ward, Jordan Hudson and Mike Coykendall - Howlin' For My Baby
TTITLE1=Jace Everett and CC Adcock - Evil (Is Going On)
TTITLE2=Beck - Bad Blood
TTITLE3=Robbie Robertson - How To Become Clairvoyant
TTITLE4=Jr. Walker and The All Stars - Shake And Fingerpop
TTITLE5=Screamin' Jay Hawkins - Frenzy
TTITLE6=Lucinda Williams with Elvis Costello - Kiss Like Your Kiss
TTITLE7=Buddy and Julie Miller - Gasoline And Matches
TTITLE8=Chuck Prophet - You Did (Bomp Shooby Dooby Bomp)
TTITLE9=13th Floor Elevators - You're Gonna Miss Me
TTITLE10=Eels - Fresh Blood
TTITLE11=Thievery Corporation - The Forgotten People [Bon Temps Remix]
TTITLE12=King Britt and Sister Gertrude Morgan - New World In My View
TTITLE13=Bob Dylan - Beyond Here Lies Nothin'
EXTD=
EXTT0=
EXTT1=
EXTT2=
EXTT3=
EXTT4=
EXTT5=
EXTT6=
EXTT7=
EXTT8=
EXTT9=
EXTT10=
EXTT11=
EXTT12=
EXTT13=
PLAYORDER=
